<mxfile host="65bd71144e">
    <diagram id="jk-mDYcw6juqVpxIaa4l" name="第 1 页">
        <mxGraphModel dx="3058" dy="1827" grid="1" gridSize="10" guides="1" tooltips="1" connect="1" arrows="1" fold="1" page="1" pageScale="1" pageWidth="1920" pageHeight="1200" background="#ffffff" math="0" shadow="0">
            <root>
                <mxCell id="0"/>
                <mxCell id="1" parent="0"/>
                <mxCell id="489" value="" style="rounded=0;whiteSpace=wrap;html=1;labelBackgroundColor=none;fontSize=24;strokeWidth=2;fillColor=#FFFFFF;" parent="1" vertex="1">
                    <mxGeometry x="-90" y="-50" width="1080" height="1020" as="geometry"/>
                </mxCell>
                <mxCell id="173" value="&lt;font style=&quot;font-size: 18px&quot;&gt;业务模块&lt;/font&gt;" style="text;html=1;align=center;verticalAlign=middle;resizable=0;points=[];autosize=1;strokeColor=none;" parent="1" vertex="1">
                    <mxGeometry x="130" y="620" width="90" height="20" as="geometry"/>
                </mxCell>
                <mxCell id="328" value="&lt;font style=&quot;font-size: 36px&quot;&gt;高&lt;br&gt;稳&lt;br&gt;定&lt;br&gt;可&lt;br&gt;复&lt;br&gt;用&lt;br&gt;架&lt;br&gt;构&lt;/font&gt;" style="rounded=0;whiteSpace=wrap;html=1;fontColor=#ffffff;fillColor=#0050ef;align=center;strokeColor=#001DBC;" parent="1" vertex="1">
                    <mxGeometry x="-60" y="-20" width="70" height="960" as="geometry"/>
                </mxCell>
                <mxCell id="435" style="edgeStyle=none;html=1;exitX=1;exitY=0.5;exitDx=0;exitDy=0;exitPerimeter=0;fontSize=24;fontColor=#000000;fillColor=default;" parent="1" edge="1">
                    <mxGeometry relative="1" as="geometry">
                        <mxPoint x="787.5294117647059" y="610" as="targetPoint"/>
                        <mxPoint x="898" y="640" as="sourcePoint"/>
                    </mxGeometry>
                </mxCell>
                <mxCell id="526" value="" style="group" vertex="1" connectable="0" parent="1">
                    <mxGeometry x="20" y="420" width="940" height="530" as="geometry"/>
                </mxCell>
                <mxCell id="531" value="" style="group" vertex="1" connectable="0" parent="526">
                    <mxGeometry y="-170" width="940" height="250" as="geometry"/>
                </mxCell>
                <mxCell id="475" value="" style="rounded=0;whiteSpace=wrap;html=1;strokeWidth=2;strokeColor=#b85450;fillColor=#f8cecc;gradientColor=#ea6b66;" parent="531" vertex="1">
                    <mxGeometry width="940" height="250" as="geometry"/>
                </mxCell>
                <mxCell id="522" value="" style="group" vertex="1" connectable="0" parent="531">
                    <mxGeometry x="90" y="64" width="810" height="136" as="geometry"/>
                </mxCell>
                <mxCell id="465" value="&lt;span style=&quot;font-size: 14px&quot;&gt;聊天组件&lt;/span&gt;" style="rounded=1;whiteSpace=wrap;html=1;fontColor=#1A1A1A;fillColor=#FFFFFF;" parent="522" vertex="1">
                    <mxGeometry x="420" width="110" height="30" as="geometry"/>
                </mxCell>
                <mxCell id="466" value="&lt;font style=&quot;font-size: 14px&quot;&gt;聊天审核组件&lt;/font&gt;" style="rounded=1;whiteSpace=wrap;html=1;fontColor=#1A1A1A;fillColor=#FFFFFF;" parent="522" vertex="1">
                    <mxGeometry x="280" width="110" height="30" as="geometry"/>
                </mxCell>
                <mxCell id="467" value="&lt;span style=&quot;font-size: 14px&quot;&gt;私聊组件&lt;/span&gt;" style="rounded=1;whiteSpace=wrap;html=1;fontColor=#1A1A1A;fillColor=#FFFFFF;" parent="522" vertex="1">
                    <mxGeometry x="140.5" width="110" height="30" as="geometry"/>
                </mxCell>
                <mxCell id="468" value="&lt;span style=&quot;font-size: 14px&quot;&gt;小组群聊组件&lt;/span&gt;" style="rounded=1;whiteSpace=wrap;html=1;fontColor=#1A1A1A;fillColor=#FFFFFF;" parent="522" vertex="1">
                    <mxGeometry width="110" height="30" as="geometry"/>
                </mxCell>
                <mxCell id="469" value="&lt;font style=&quot;font-size: 14px&quot;&gt;插播组件&lt;/font&gt;" style="rounded=1;whiteSpace=wrap;html=1;fontColor=#1A1A1A;fillColor=#FFFFFF;" parent="522" vertex="1">
                    <mxGeometry x="700" width="110" height="30" as="geometry"/>
                </mxCell>
                <mxCell id="470" value="&lt;font style=&quot;font-size: 14px&quot;&gt;互动管理组件&lt;/font&gt;" style="rounded=1;whiteSpace=wrap;html=1;fontColor=#1A1A1A;fillColor=#FFFFFF;" parent="522" vertex="1">
                    <mxGeometry x="560" width="110" height="30" as="geometry"/>
                </mxCell>
                <mxCell id="471" value="&lt;span style=&quot;font-size: 14px&quot;&gt;本地推流组件&lt;/span&gt;" style="rounded=1;whiteSpace=wrap;html=1;fontColor=#1A1A1A;fillColor=#FFFFFF;" parent="522" vertex="1">
                    <mxGeometry x="140.5" y="56" width="110" height="30" as="geometry"/>
                </mxCell>
                <mxCell id="472" value="&lt;span style=&quot;font-size: 14px&quot;&gt;远端流订阅组件&lt;/span&gt;" style="rounded=1;whiteSpace=wrap;html=1;fontColor=#1A1A1A;fillColor=#FFFFFF;" parent="522" vertex="1">
                    <mxGeometry y="56" width="110" height="30" as="geometry"/>
                </mxCell>
                <mxCell id="473" value="&lt;span style=&quot;font-size: 14px&quot;&gt;互动连麦组件&lt;/span&gt;" style="rounded=1;whiteSpace=wrap;html=1;fontColor=#1A1A1A;fillColor=#FFFFFF;" parent="522" vertex="1">
                    <mxGeometry x="280" y="56" width="110" height="30" as="geometry"/>
                </mxCell>
                <mxCell id="474" value="&lt;font style=&quot;font-size: 20px&quot; color=&quot;#000000&quot;&gt;&lt;b style=&quot;line-height: 100%&quot;&gt;. . . . . .&lt;/b&gt;&lt;/font&gt;" style="text;html=1;strokeColor=none;fillColor=none;align=center;verticalAlign=middle;whiteSpace=wrap;rounded=0;" parent="522" vertex="1">
                    <mxGeometry x="720" y="111" width="70" height="20" as="geometry"/>
                </mxCell>
                <mxCell id="479" value="&lt;font style=&quot;font-size: 14px&quot;&gt;分屏组件&lt;/font&gt;" style="rounded=1;whiteSpace=wrap;html=1;fontColor=#1A1A1A;fillColor=#FFFFFF;" parent="522" vertex="1">
                    <mxGeometry x="560" y="56" width="110" height="30" as="geometry"/>
                </mxCell>
                <mxCell id="480" value="&lt;font style=&quot;font-size: 14px&quot;&gt;专题列表组件&lt;/font&gt;" style="rounded=1;whiteSpace=wrap;html=1;fontColor=#1A1A1A;fillColor=#FFFFFF;" parent="522" vertex="1">
                    <mxGeometry y="106" width="110" height="30" as="geometry"/>
                </mxCell>
                <mxCell id="481" value="&lt;font style=&quot;font-size: 14px&quot;&gt;专题详情组件&lt;/font&gt;" style="rounded=1;whiteSpace=wrap;html=1;fontColor=#1A1A1A;fillColor=#FFFFFF;" parent="522" vertex="1">
                    <mxGeometry x="140.5" y="106" width="110" height="30" as="geometry"/>
                </mxCell>
                <mxCell id="482" value="&lt;font style=&quot;font-size: 14px&quot;&gt;播放器组件&lt;/font&gt;" style="rounded=1;whiteSpace=wrap;html=1;fontColor=#1A1A1A;fillColor=#FFFFFF;" parent="522" vertex="1">
                    <mxGeometry x="420" y="56" width="110" height="30" as="geometry"/>
                </mxCell>
                <mxCell id="483" value="&lt;span style=&quot;font-size: 14px&quot;&gt;转播组件&lt;/span&gt;" style="rounded=1;whiteSpace=wrap;html=1;fontColor=#1A1A1A;fillColor=#FFFFFF;" parent="522" vertex="1">
                    <mxGeometry x="280" y="106" width="110" height="30" as="geometry"/>
                </mxCell>
                <mxCell id="484" value="&lt;span style=&quot;font-size: 14px&quot;&gt;自定义菜单组件&lt;/span&gt;" style="rounded=1;whiteSpace=wrap;html=1;fontColor=#1A1A1A;fillColor=#FFFFFF;" parent="522" vertex="1">
                    <mxGeometry x="420" y="106" width="110" height="30" as="geometry"/>
                </mxCell>
                <mxCell id="485" value="&lt;span style=&quot;font-size: 14px&quot;&gt;多语言组件&lt;/span&gt;" style="rounded=1;whiteSpace=wrap;html=1;fontColor=#1A1A1A;fillColor=#FFFFFF;" parent="522" vertex="1">
                    <mxGeometry x="560" y="106" width="110" height="30" as="geometry"/>
                </mxCell>
                <mxCell id="486" value="&lt;font style=&quot;font-size: 14px&quot;&gt;桌面共享组件&lt;/font&gt;" style="rounded=1;whiteSpace=wrap;html=1;fontColor=#1A1A1A;fillColor=#FFFFFF;" parent="522" vertex="1">
                    <mxGeometry x="700" y="56" width="110" height="30" as="geometry"/>
                </mxCell>
                <mxCell id="501" value="&lt;span style=&quot;font-size: 24px&quot;&gt;&lt;b&gt;业&lt;br&gt;务&lt;br&gt;组&lt;br&gt;件&lt;/b&gt;&lt;/span&gt;" style="text;html=1;strokeColor=#314354;fillColor=#647687;align=center;verticalAlign=middle;whiteSpace=wrap;rounded=0;dashed=1;fontColor=#ffffff;" parent="531" vertex="1">
                    <mxGeometry width="50" height="250" as="geometry"/>
                </mxCell>
                <mxCell id="517" value="" style="group" vertex="1" connectable="0" parent="526">
                    <mxGeometry y="100" width="940" height="420" as="geometry"/>
                </mxCell>
                <mxCell id="410" value="" style="rounded=0;whiteSpace=wrap;html=1;strokeWidth=2;strokeColor=#d6b656;fillColor=#fff2cc;gradientColor=#ffd966;" parent="517" vertex="1">
                    <mxGeometry width="940" height="420" as="geometry"/>
                </mxCell>
                <mxCell id="411" value="&lt;font size=&quot;1&quot;&gt;&lt;b style=&quot;font-size: 24px&quot;&gt;核&lt;br&gt;心&lt;br&gt;功&lt;br&gt;能&lt;br&gt;&lt;/b&gt;&lt;/font&gt;" style="text;html=1;strokeColor=#314354;fillColor=#647687;align=center;verticalAlign=middle;whiteSpace=wrap;rounded=0;dashed=1;fontColor=#ffffff;" parent="517" vertex="1">
                    <mxGeometry width="50" height="420" as="geometry"/>
                </mxCell>
                <mxCell id="514" value="" style="group" vertex="1" connectable="0" parent="517">
                    <mxGeometry x="75" y="30" width="835" height="370" as="geometry"/>
                </mxCell>
                <mxCell id="506" value="" style="group" vertex="1" connectable="0" parent="514">
                    <mxGeometry y="260" width="835" height="110" as="geometry"/>
                </mxCell>
                <mxCell id="452" value="" style="rounded=1;whiteSpace=wrap;html=1;dashed=1;labelBackgroundColor=none;fontSize=24;strokeColor=#6c8ebf;strokeWidth=2;fillColor=#dae8fc;" parent="506" vertex="1">
                    <mxGeometry width="835" height="110" as="geometry"/>
                </mxCell>
                <mxCell id="453" value="&lt;span style=&quot;font-family: &amp;#34;helvetica neue&amp;#34; , &amp;#34;helvetica&amp;#34; , &amp;#34;pingfang sc&amp;#34; , &amp;#34;microsoft yahei&amp;#34; , &amp;#34;source han sans sc&amp;#34; , &amp;#34;noto sans cjk sc&amp;#34; , &amp;#34;wenquanyi micro hei&amp;#34; , sans-serif ; text-align: left&quot;&gt;&lt;font style=&quot;font-size: 18px&quot;&gt;嵌入能力+开放能力&lt;/font&gt;&lt;/span&gt;" style="rounded=1;whiteSpace=wrap;html=1;fillColor=#ffcd28;strokeColor=#d79b00;gradientColor=#ffa500;fontColor=#000000;" parent="506" vertex="1">
                    <mxGeometry x="15" y="20" width="200" height="70" as="geometry"/>
                </mxCell>
                <mxCell id="454" value="&lt;span style=&quot;font-family: &amp;#34;helvetica neue&amp;#34; , &amp;#34;helvetica&amp;#34; , &amp;#34;pingfang sc&amp;#34; , &amp;#34;microsoft yahei&amp;#34; , &amp;#34;source han sans sc&amp;#34; , &amp;#34;noto sans cjk sc&amp;#34; , &amp;#34;wenquanyi micro hei&amp;#34; , sans-serif ; font-size: 13.3333px ; text-align: left&quot;&gt;客户端嵌入&lt;/span&gt;" style="rounded=1;whiteSpace=wrap;html=1;fillColor=#647687;strokeColor=#314354;fontColor=#ffffff;" parent="506" vertex="1">
                    <mxGeometry x="225" y="17.5" width="110" height="30" as="geometry"/>
                </mxCell>
                <mxCell id="455" value="&lt;div style=&quot;text-align: left&quot;&gt;&lt;span style=&quot;font-size: 13.3333px&quot;&gt;&lt;font face=&quot;helvetica neue, helvetica, pingfang sc, microsoft yahei, source han sans sc, noto sans cjk sc, wenquanyi micro hei, sans-serif&quot;&gt;jssdk&lt;/font&gt;&lt;/span&gt;&lt;/div&gt;" style="rounded=1;whiteSpace=wrap;html=1;fillColor=#647687;strokeColor=#314354;fontColor=#ffffff;" parent="506" vertex="1">
                    <mxGeometry x="345" y="17.5" width="110" height="30" as="geometry"/>
                </mxCell>
                <mxCell id="456" value="&lt;div style=&quot;text-align: left&quot;&gt;&lt;span style=&quot;font-size: 13.3333px&quot;&gt;&lt;font face=&quot;helvetica neue, helvetica, pingfang sc, microsoft yahei, source han sans sc, noto sans cjk sc, wenquanyi micro hei, sans-serif&quot;&gt;openapi&lt;/font&gt;&lt;/span&gt;&lt;/div&gt;" style="rounded=1;whiteSpace=wrap;html=1;fillColor=#647687;strokeColor=#314354;fontColor=#ffffff;arcSize=0;" parent="506" vertex="1">
                    <mxGeometry x="465" y="17.5" width="110" height="30" as="geometry"/>
                </mxCell>
                <mxCell id="457" value="&lt;div style=&quot;text-align: left&quot;&gt;单视频嵌入&lt;/div&gt;" style="rounded=1;whiteSpace=wrap;html=1;fillColor=#647687;strokeColor=#314354;fontColor=#ffffff;arcSize=0;" parent="506" vertex="1">
                    <mxGeometry x="585" y="17.5" width="110" height="30" as="geometry"/>
                </mxCell>
                <mxCell id="458" value="&lt;div style=&quot;text-align: left&quot;&gt;&lt;span style=&quot;font-size: 13.3333px&quot;&gt;&lt;font face=&quot;helvetica neue, helvetica, pingfang sc, microsoft yahei, source han sans sc, noto sans cjk sc, wenquanyi micro hei, sans-serif&quot;&gt;完全嵌入&lt;/font&gt;&lt;/span&gt;&lt;/div&gt;" style="rounded=1;whiteSpace=wrap;html=1;fillColor=#647687;strokeColor=#314354;fontColor=#ffffff;arcSize=0;" parent="506" vertex="1">
                    <mxGeometry x="705" y="17.5" width="110" height="30" as="geometry"/>
                </mxCell>
                <mxCell id="459" value="&lt;span style=&quot;font-family: &amp;#34;helvetica neue&amp;#34; , &amp;#34;helvetica&amp;#34; , &amp;#34;pingfang sc&amp;#34; , &amp;#34;microsoft yahei&amp;#34; , &amp;#34;source han sans sc&amp;#34; , &amp;#34;noto sans cjk sc&amp;#34; , &amp;#34;wenquanyi micro hei&amp;#34; , sans-serif ; font-size: 13.3333px ; text-align: left&quot;&gt;appsdk&lt;/span&gt;" style="rounded=1;whiteSpace=wrap;html=1;fillColor=#647687;strokeColor=#314354;fontColor=#ffffff;" parent="506" vertex="1">
                    <mxGeometry x="225" y="62.5" width="110" height="30" as="geometry"/>
                </mxCell>
                <mxCell id="463" value="&lt;div style=&quot;text-align: left&quot;&gt;&lt;font face=&quot;helvetica neue, helvetica, pingfang sc, microsoft yahei, source han sans sc, noto sans cjk sc, wenquanyi micro hei, sans-serif&quot;&gt;&lt;span style=&quot;font-size: 13.3333px&quot;&gt;...&lt;/span&gt;&lt;/font&gt;&lt;/div&gt;" style="rounded=1;whiteSpace=wrap;html=1;fillColor=#647687;strokeColor=#314354;fontColor=#ffffff;" parent="506" vertex="1">
                    <mxGeometry x="347" y="62.5" width="110" height="30" as="geometry"/>
                </mxCell>
                <mxCell id="507" value="" style="group" vertex="1" connectable="0" parent="514">
                    <mxGeometry y="130" width="835" height="110" as="geometry"/>
                </mxCell>
                <mxCell id="438" value="" style="rounded=1;whiteSpace=wrap;html=1;dashed=1;labelBackgroundColor=none;fontSize=24;strokeColor=#6c8ebf;strokeWidth=2;fillColor=#dae8fc;" parent="507" vertex="1">
                    <mxGeometry width="835" height="110" as="geometry"/>
                </mxCell>
                <mxCell id="439" value="&lt;span style=&quot;font-family: &amp;#34;helvetica neue&amp;#34; , &amp;#34;helvetica&amp;#34; , &amp;#34;pingfang sc&amp;#34; , &amp;#34;microsoft yahei&amp;#34; , &amp;#34;source han sans sc&amp;#34; , &amp;#34;noto sans cjk sc&amp;#34; , &amp;#34;wenquanyi micro hei&amp;#34; , sans-serif ; text-align: left&quot;&gt;&lt;font style=&quot;font-size: 18px&quot;&gt;直播互动-品牌-用户&lt;/font&gt;&lt;/span&gt;" style="rounded=1;whiteSpace=wrap;html=1;fillColor=#ffcd28;strokeColor=#d79b00;gradientColor=#ffa500;fontColor=#000000;" parent="507" vertex="1">
                    <mxGeometry x="15" y="17.5" width="200" height="75" as="geometry"/>
                </mxCell>
                <mxCell id="440" value="&lt;div style=&quot;text-align: left&quot;&gt;&lt;span style=&quot;font-size: 13.3333px&quot;&gt;&lt;font face=&quot;helvetica neue, helvetica, pingfang sc, microsoft yahei, source han sans sc, noto sans cjk sc, wenquanyi micro hei, sans-serif&quot;&gt;互动工具&lt;/font&gt;&lt;/span&gt;&lt;/div&gt;" style="rounded=1;whiteSpace=wrap;html=1;fillColor=#647687;strokeColor=#314354;fontColor=#ffffff;" parent="507" vertex="1">
                    <mxGeometry x="225" y="17.50000000000003" width="110" height="30" as="geometry"/>
                </mxCell>
                <mxCell id="441" value="&lt;div style=&quot;text-align: left&quot;&gt;&lt;span style=&quot;font-size: 13.3333px&quot;&gt;&lt;font face=&quot;helvetica neue, helvetica, pingfang sc, microsoft yahei, source han sans sc, noto sans cjk sc, wenquanyi micro hei, sans-serif&quot;&gt;活动品牌&lt;/font&gt;&lt;/span&gt;&lt;/div&gt;" style="rounded=1;whiteSpace=wrap;html=1;fillColor=#647687;strokeColor=#314354;fontColor=#ffffff;" parent="507" vertex="1">
                    <mxGeometry x="345" y="17.50000000000003" width="110" height="30" as="geometry"/>
                </mxCell>
                <mxCell id="442" value="&lt;span style=&quot;font-family: &amp;#34;helvetica neue&amp;#34; , &amp;#34;helvetica&amp;#34; , &amp;#34;pingfang sc&amp;#34; , &amp;#34;microsoft yahei&amp;#34; , &amp;#34;source han sans sc&amp;#34; , &amp;#34;noto sans cjk sc&amp;#34; , &amp;#34;wenquanyi micro hei&amp;#34; , sans-serif ; font-size: 13.3333px ; text-align: left&quot;&gt;活动准备&lt;/span&gt;" style="rounded=1;whiteSpace=wrap;html=1;fillColor=#647687;strokeColor=#314354;fontColor=#ffffff;arcSize=0;" parent="507" vertex="1">
                    <mxGeometry x="465" y="17.50000000000003" width="110" height="30" as="geometry"/>
                </mxCell>
                <mxCell id="443" value="&lt;span style=&quot;font-family: &amp;#34;helvetica neue&amp;#34; , &amp;#34;helvetica&amp;#34; , &amp;#34;pingfang sc&amp;#34; , &amp;#34;microsoft yahei&amp;#34; , &amp;#34;source han sans sc&amp;#34; , &amp;#34;noto sans cjk sc&amp;#34; , &amp;#34;wenquanyi micro hei&amp;#34; , sans-serif ; font-size: 13.3333px ; text-align: left&quot;&gt;用户&lt;/span&gt;" style="rounded=1;whiteSpace=wrap;html=1;fillColor=#647687;strokeColor=#314354;fontColor=#ffffff;arcSize=0;" parent="507" vertex="1">
                    <mxGeometry x="585" y="17.50000000000003" width="110" height="30" as="geometry"/>
                </mxCell>
                <mxCell id="444" value="&lt;div style=&quot;text-align: left&quot;&gt;&lt;span style=&quot;font-size: 13.3333px&quot;&gt;&lt;font face=&quot;helvetica neue, helvetica, pingfang sc, microsoft yahei, source han sans sc, noto sans cjk sc, wenquanyi micro hei, sans-serif&quot;&gt;计费&lt;/font&gt;&lt;/span&gt;&lt;/div&gt;" style="rounded=1;whiteSpace=wrap;html=1;fillColor=#647687;strokeColor=#314354;fontColor=#ffffff;arcSize=0;" parent="507" vertex="1">
                    <mxGeometry x="705" y="17.50000000000003" width="110" height="30" as="geometry"/>
                </mxCell>
                <mxCell id="445" value="&lt;span style=&quot;font-family: &amp;#34;helvetica neue&amp;#34; , &amp;#34;helvetica&amp;#34; , &amp;#34;pingfang sc&amp;#34; , &amp;#34;microsoft yahei&amp;#34; , &amp;#34;source han sans sc&amp;#34; , &amp;#34;noto sans cjk sc&amp;#34; , &amp;#34;wenquanyi micro hei&amp;#34; , sans-serif ; font-size: 13.3333px ; text-align: left&quot;&gt;权限&lt;/span&gt;" style="rounded=1;whiteSpace=wrap;html=1;fillColor=#647687;strokeColor=#314354;fontColor=#ffffff;" parent="507" vertex="1">
                    <mxGeometry x="225" y="62.50000000000003" width="110" height="30" as="geometry"/>
                </mxCell>
                <mxCell id="446" value="&lt;span style=&quot;font-family: &amp;#34;helvetica neue&amp;#34; , &amp;#34;helvetica&amp;#34; , &amp;#34;pingfang sc&amp;#34; , &amp;#34;microsoft yahei&amp;#34; , &amp;#34;source han sans sc&amp;#34; , &amp;#34;noto sans cjk sc&amp;#34; , &amp;#34;wenquanyi micro hei&amp;#34; , sans-serif ; font-size: 13.3333px ; text-align: left&quot;&gt;预约&lt;/span&gt;" style="rounded=1;whiteSpace=wrap;html=1;fillColor=#647687;strokeColor=#314354;fontColor=#ffffff;" parent="507" vertex="1">
                    <mxGeometry x="345" y="62.50000000000003" width="110" height="30" as="geometry"/>
                </mxCell>
                <mxCell id="447" value="&lt;span style=&quot;font-family: &amp;#34;helvetica neue&amp;#34; , &amp;#34;helvetica&amp;#34; , &amp;#34;pingfang sc&amp;#34; , &amp;#34;microsoft yahei&amp;#34; , &amp;#34;source han sans sc&amp;#34; , &amp;#34;noto sans cjk sc&amp;#34; , &amp;#34;wenquanyi micro hei&amp;#34; , sans-serif ; font-size: 13.3333px ; text-align: left&quot;&gt;邀请卡&lt;/span&gt;" style="rounded=1;whiteSpace=wrap;html=1;fillColor=#647687;strokeColor=#314354;fontColor=#ffffff;" parent="507" vertex="1">
                    <mxGeometry x="465" y="62.50000000000003" width="110" height="30" as="geometry"/>
                </mxCell>
                <mxCell id="448" value="&lt;span style=&quot;font-family: &amp;#34;helvetica neue&amp;#34; , &amp;#34;helvetica&amp;#34; , &amp;#34;pingfang sc&amp;#34; , &amp;#34;microsoft yahei&amp;#34; , &amp;#34;source han sans sc&amp;#34; , &amp;#34;noto sans cjk sc&amp;#34; , &amp;#34;wenquanyi micro hei&amp;#34; , sans-serif ; font-size: 13.3333px ; text-align: left&quot;&gt;分享&lt;/span&gt;" style="rounded=1;whiteSpace=wrap;html=1;fillColor=#647687;strokeColor=#314354;fontColor=#ffffff;" parent="507" vertex="1">
                    <mxGeometry x="585" y="62.50000000000003" width="110" height="30" as="geometry"/>
                </mxCell>
                <mxCell id="449" value="&lt;div style=&quot;text-align: left&quot;&gt;&lt;font face=&quot;helvetica neue, helvetica, pingfang sc, microsoft yahei, source han sans sc, noto sans cjk sc, wenquanyi micro hei, sans-serif&quot;&gt;&lt;span style=&quot;font-size: 13.3333px&quot;&gt;...&lt;/span&gt;&lt;/font&gt;&lt;/div&gt;" style="rounded=1;whiteSpace=wrap;html=1;fillColor=#647687;strokeColor=#314354;fontColor=#ffffff;" parent="507" vertex="1">
                    <mxGeometry x="705" y="62.50000000000003" width="110" height="30" as="geometry"/>
                </mxCell>
                <mxCell id="512" value="" style="group" vertex="1" connectable="0" parent="514">
                    <mxGeometry width="835" height="110" as="geometry"/>
                </mxCell>
                <mxCell id="412" value="" style="rounded=1;whiteSpace=wrap;html=1;dashed=1;labelBackgroundColor=none;fontSize=24;strokeColor=#10739e;strokeWidth=2;fillColor=#b1ddf0;" parent="512" vertex="1">
                    <mxGeometry width="835" height="110" as="geometry"/>
                </mxCell>
                <mxCell id="191" value="&lt;span style=&quot;font-family: &amp;#34;helvetica neue&amp;#34; , &amp;#34;helvetica&amp;#34; , &amp;#34;pingfang sc&amp;#34; , &amp;#34;microsoft yahei&amp;#34; , &amp;#34;source han sans sc&amp;#34; , &amp;#34;noto sans cjk sc&amp;#34; , &amp;#34;wenquanyi micro hei&amp;#34; , sans-serif ; text-align: left&quot;&gt;&lt;font style=&quot;font-size: 18px&quot;&gt;直播间基础能力&lt;/font&gt;&lt;/span&gt;" style="rounded=1;whiteSpace=wrap;html=1;fillColor=#ffcd28;strokeColor=#d79b00;gradientColor=#ffa500;fontColor=#000000;" parent="512" vertex="1">
                    <mxGeometry x="15" y="16" width="200" height="75" as="geometry"/>
                </mxCell>
                <mxCell id="309" value="&lt;span style=&quot;font-family: &amp;#34;helvetica neue&amp;#34; , &amp;#34;helvetica&amp;#34; , &amp;#34;pingfang sc&amp;#34; , &amp;#34;microsoft yahei&amp;#34; , &amp;#34;source han sans sc&amp;#34; , &amp;#34;noto sans cjk sc&amp;#34; , &amp;#34;wenquanyi micro hei&amp;#34; , sans-serif ; font-size: 13.3333px ; text-align: left&quot;&gt;音视频互动&lt;/span&gt;" style="rounded=1;whiteSpace=wrap;html=1;fillColor=#647687;strokeColor=#314354;fontColor=#ffffff;" parent="512" vertex="1">
                    <mxGeometry x="225" y="16" width="110" height="30" as="geometry"/>
                </mxCell>
                <mxCell id="413" value="&lt;span style=&quot;font-family: &amp;#34;helvetica neue&amp;#34; , &amp;#34;helvetica&amp;#34; , &amp;#34;pingfang sc&amp;#34; , &amp;#34;microsoft yahei&amp;#34; , &amp;#34;source han sans sc&amp;#34; , &amp;#34;noto sans cjk sc&amp;#34; , &amp;#34;wenquanyi micro hei&amp;#34; , sans-serif ; font-size: 13.3333px ; text-align: left&quot;&gt;文档&lt;/span&gt;" style="rounded=1;whiteSpace=wrap;html=1;fillColor=#647687;strokeColor=#314354;fontColor=#ffffff;" parent="512" vertex="1">
                    <mxGeometry x="345" y="15.000000000000028" width="110" height="30" as="geometry"/>
                </mxCell>
                <mxCell id="414" value="&lt;span style=&quot;font-family: &amp;#34;helvetica neue&amp;#34; , &amp;#34;helvetica&amp;#34; , &amp;#34;pingfang sc&amp;#34; , &amp;#34;microsoft yahei&amp;#34; , &amp;#34;source han sans sc&amp;#34; , &amp;#34;noto sans cjk sc&amp;#34; , &amp;#34;wenquanyi micro hei&amp;#34; , sans-serif ; font-size: 13.3333px ; text-align: left&quot;&gt;播放器&lt;/span&gt;" style="rounded=1;whiteSpace=wrap;html=1;fillColor=#647687;strokeColor=#314354;fontColor=#ffffff;arcSize=0;" parent="512" vertex="1">
                    <mxGeometry x="465" y="15.000000000000028" width="110" height="30" as="geometry"/>
                </mxCell>
                <mxCell id="415" value="&lt;span style=&quot;font-family: &amp;#34;helvetica neue&amp;#34; , &amp;#34;helvetica&amp;#34; , &amp;#34;pingfang sc&amp;#34; , &amp;#34;microsoft yahei&amp;#34; , &amp;#34;source han sans sc&amp;#34; , &amp;#34;noto sans cjk sc&amp;#34; , &amp;#34;wenquanyi micro hei&amp;#34; , sans-serif ; font-size: 13.3333px ; text-align: left&quot;&gt;Im聊天&lt;/span&gt;" style="rounded=1;whiteSpace=wrap;html=1;fillColor=#647687;strokeColor=#314354;fontColor=#ffffff;arcSize=0;" parent="512" vertex="1">
                    <mxGeometry x="585" y="15.000000000000028" width="110" height="30" as="geometry"/>
                </mxCell>
                <mxCell id="416" value="&lt;span style=&quot;font-family: &amp;#34;helvetica neue&amp;#34; , &amp;#34;helvetica&amp;#34; , &amp;#34;pingfang sc&amp;#34; , &amp;#34;microsoft yahei&amp;#34; , &amp;#34;source han sans sc&amp;#34; , &amp;#34;noto sans cjk sc&amp;#34; , &amp;#34;wenquanyi micro hei&amp;#34; , sans-serif ; font-size: 13.3333px ; text-align: left&quot;&gt;录制&lt;/span&gt;" style="rounded=1;whiteSpace=wrap;html=1;fillColor=#647687;strokeColor=#314354;fontColor=#ffffff;arcSize=0;" parent="512" vertex="1">
                    <mxGeometry x="705" y="15.000000000000028" width="110" height="30" as="geometry"/>
                </mxCell>
                <mxCell id="417" value="&lt;span style=&quot;font-family: &amp;#34;helvetica neue&amp;#34; , &amp;#34;helvetica&amp;#34; , &amp;#34;pingfang sc&amp;#34; , &amp;#34;microsoft yahei&amp;#34; , &amp;#34;source han sans sc&amp;#34; , &amp;#34;noto sans cjk sc&amp;#34; , &amp;#34;wenquanyi micro hei&amp;#34; , sans-serif ; font-size: 13.3333px ; text-align: left&quot;&gt;转播&lt;/span&gt;" style="rounded=1;whiteSpace=wrap;html=1;fillColor=#647687;strokeColor=#314354;fontColor=#ffffff;" parent="512" vertex="1">
                    <mxGeometry x="225" y="60.00000000000003" width="110" height="30" as="geometry"/>
                </mxCell>
                <mxCell id="418" value="&lt;span style=&quot;font-family: &amp;#34;helvetica neue&amp;#34; , &amp;#34;helvetica&amp;#34; , &amp;#34;pingfang sc&amp;#34; , &amp;#34;microsoft yahei&amp;#34; , &amp;#34;source han sans sc&amp;#34; , &amp;#34;noto sans cjk sc&amp;#34; , &amp;#34;wenquanyi micro hei&amp;#34; , sans-serif ; font-size: 13.3333px ; text-align: left&quot;&gt;分组设置&lt;/span&gt;" style="rounded=1;whiteSpace=wrap;html=1;fillColor=#647687;strokeColor=#314354;fontColor=#ffffff;" parent="512" vertex="1">
                    <mxGeometry x="345" y="60.00000000000003" width="110" height="30" as="geometry"/>
                </mxCell>
                <mxCell id="419" value="&lt;div style=&quot;text-align: left&quot;&gt;&lt;span style=&quot;font-size: 13.3333px&quot;&gt;&lt;font face=&quot;helvetica neue, helvetica, pingfang sc, microsoft yahei, source han sans sc, noto sans cjk sc, wenquanyi micro hei, sans-serif&quot;&gt;互动连麦&lt;/font&gt;&lt;/span&gt;&lt;/div&gt;" style="rounded=1;whiteSpace=wrap;html=1;fillColor=#647687;strokeColor=#314354;fontColor=#ffffff;" parent="512" vertex="1">
                    <mxGeometry x="465" y="60.00000000000003" width="110" height="30" as="geometry"/>
                </mxCell>
                <mxCell id="420" value="&lt;span style=&quot;font-family: &amp;#34;helvetica neue&amp;#34; , &amp;#34;helvetica&amp;#34; , &amp;#34;pingfang sc&amp;#34; , &amp;#34;microsoft yahei&amp;#34; , &amp;#34;source han sans sc&amp;#34; , &amp;#34;noto sans cjk sc&amp;#34; , &amp;#34;wenquanyi micro hei&amp;#34; , sans-serif ; font-size: 13.3333px ; text-align: left&quot;&gt;消息处理&lt;/span&gt;" style="rounded=1;whiteSpace=wrap;html=1;fillColor=#647687;strokeColor=#314354;fontColor=#ffffff;" parent="512" vertex="1">
                    <mxGeometry x="585" y="60.00000000000003" width="110" height="30" as="geometry"/>
                </mxCell>
                <mxCell id="421" value="&lt;div style=&quot;text-align: left&quot;&gt;&lt;font face=&quot;helvetica neue, helvetica, pingfang sc, microsoft yahei, source han sans sc, noto sans cjk sc, wenquanyi micro hei, sans-serif&quot;&gt;&lt;span style=&quot;font-size: 13.3333px&quot;&gt;...&lt;/span&gt;&lt;/font&gt;&lt;/div&gt;" style="rounded=1;whiteSpace=wrap;html=1;fillColor=#647687;strokeColor=#314354;fontColor=#ffffff;" parent="512" vertex="1">
                    <mxGeometry x="705" y="60.00000000000003" width="110" height="30" as="geometry"/>
                </mxCell>
                <mxCell id="528" value="" style="group" vertex="1" connectable="0" parent="1">
                    <mxGeometry x="20" y="-20" width="940" height="250" as="geometry"/>
                </mxCell>
                <mxCell id="434" value="" style="group;fillColor=#dae8fc;strokeColor=#6c8ebf;gradientColor=#7ea6e0;container=0;strokeWidth=2;" parent="528" vertex="1" connectable="0">
                    <mxGeometry width="940" height="250" as="geometry"/>
                </mxCell>
                <mxCell id="527" value="" style="group" vertex="1" connectable="0" parent="528">
                    <mxGeometry x="110" y="70" width="760" height="129.34000000000003" as="geometry"/>
                </mxCell>
                <mxCell id="264" value="&lt;span style=&quot;font-size: 24px;&quot;&gt;发起端&lt;/span&gt;" style="rounded=1;whiteSpace=wrap;html=1;fillColor=#99CCFF;strokeColor=#6c8ebf;fontSize=24;gradientColor=#007FFF;" parent="527" vertex="1">
                    <mxGeometry width="135" height="129.34" as="geometry"/>
                </mxCell>
                <mxCell id="503" value="&lt;span style=&quot;font-size: 24px&quot;&gt;控制台&lt;/span&gt;" style="rounded=1;whiteSpace=wrap;html=1;fillColor=#99CCFF;strokeColor=#6c8ebf;fontSize=24;gradientColor=#007FFF;" parent="527" vertex="1">
                    <mxGeometry x="415" width="135" height="129.34" as="geometry"/>
                </mxCell>
                <mxCell id="504" value="观看端" style="rounded=1;whiteSpace=wrap;html=1;fillColor=#99CCFF;strokeColor=#6c8ebf;fontSize=24;gradientColor=#007FFF;" parent="527" vertex="1">
                    <mxGeometry x="210" width="135" height="129.34" as="geometry"/>
                </mxCell>
                <mxCell id="505" value="&lt;span style=&quot;font-size: 24px&quot;&gt;管理中心&lt;/span&gt;" style="rounded=1;whiteSpace=wrap;html=1;fillColor=#99CCFF;strokeColor=#6c8ebf;fontSize=24;gradientColor=#007FFF;" parent="527" vertex="1">
                    <mxGeometry x="625" width="135" height="129.34" as="geometry"/>
                </mxCell>
                <mxCell id="502" value="&lt;span style=&quot;font-size: 24px&quot;&gt;&lt;b&gt;应&lt;br&gt;用&lt;br&gt;表&lt;br&gt;现&lt;br&gt;&lt;/b&gt;&lt;/span&gt;" style="text;html=1;strokeColor=#314354;fillColor=#647687;align=center;verticalAlign=middle;whiteSpace=wrap;rounded=0;dashed=1;fontColor=#ffffff;" parent="528" vertex="1">
                    <mxGeometry x="0.5" width="50" height="250" as="geometry"/>
                </mxCell>
            </root>
        </mxGraphModel>
    </diagram>
</mxfile>